<svg version="1.1" xmlns="http://www.w3.org/2000/svg" viewBox="0 0 848.0171203613281 580.01953125" width="2544.0513610839844" height="1740.05859375">
  <!-- svg-source:excalidraw -->
  
  <defs>
    <style class="style-fonts">
      @font-face {
        font-family: "Virgil";
        src: url("https://excalidraw.com/Virgil.woff2");
      }
      @font-face {
        font-family: "Cascadia";
        src: url("https://excalidraw.com/Cascadia.woff2");
      }
      @font-face {
        font-family: "Assistant";
        src: url("https://excalidraw.com/Assistant-Regular.woff2");
      }
    </style>
    
  </defs>
  <rect x="0" y="0" width="848.0171203613281" height="580.01953125" fill="#ffffff"></rect><g stroke-linecap="round" transform="translate(10 51.07421875) rotate(0 361.94140625 116.751953125)"><path d="M7.86 8.16 C7.86 8.16, 7.86 8.16, 7.86 8.16 M7.86 8.16 C7.86 8.16, 7.86 8.16, 7.86 8.16 M0.78 28.5 C8.25 19.91, 15.71 11.32, 25.05 0.58 M0.78 28.5 C9.77 18.16, 18.76 7.82, 25.05 0.58 M0.26 41.3 C11.02 28.92, 21.78 16.53, 36.34 -0.21 M0.26 41.3 C11.37 28.52, 22.48 15.73, 36.34 -0.21 M0.39 53.34 C12.36 39.56, 24.33 25.79, 46.97 -0.25 M0.39 53.34 C11.79 40.22, 23.2 27.1, 46.97 -0.25 M0.52 65.38 C12.76 51.3, 25.01 37.21, 57.6 -0.28 M0.52 65.38 C23.03 39.48, 45.54 13.59, 57.6 -0.28 M0.65 77.42 C18.73 56.63, 36.8 35.84, 67.57 0.44 M0.65 77.42 C19.04 56.27, 37.43 35.11, 67.57 0.44 M0.13 90.22 C21.23 65.95, 42.33 41.68, 78.2 0.41 M0.13 90.22 C29.84 56.04, 59.55 21.86, 78.2 0.41 M0.26 102.26 C34.49 62.88, 68.72 23.51, 88.83 0.37 M0.26 102.26 C31.67 66.13, 63.07 30, 88.83 0.37 M0.4 114.3 C39.38 69.45, 78.36 24.61, 99.46 0.34 M0.4 114.3 C26.15 84.67, 51.9 55.05, 99.46 0.34 M0.53 126.34 C27.64 95.16, 54.75 63.97, 110.09 0.3 M0.53 126.34 C39.08 81.99, 77.64 37.64, 110.09 0.3 M0.66 138.38 C44.34 88.14, 88.01 37.9, 120.72 0.27 M0.66 138.38 C42.63 90.1, 84.59 41.83, 120.72 0.27 M0.8 150.42 C52.46 90.99, 104.13 31.55, 131.35 0.23 M0.8 150.42 C27.94 119.2, 55.08 87.97, 131.35 0.23 M0.27 163.22 C44.51 112.33, 88.75 61.44, 141.98 0.2 M0.27 163.22 C55.5 99.69, 110.72 36.16, 141.98 0.2 M0.41 175.26 C57.61 109.46, 114.8 43.66, 152.61 0.16 M0.41 175.26 C36.52 133.71, 72.63 92.17, 152.61 0.16 M0.54 187.3 C36.55 145.87, 72.56 104.45, 163.24 0.13 M0.54 187.3 C40.29 141.57, 80.04 95.84, 163.24 0.13 M0.67 199.34 C41.12 152.81, 81.56 106.29, 173.87 0.09 M0.67 199.34 C40.17 153.91, 79.66 108.48, 173.87 0.09 M1.46 210.62 C42.72 163.16, 83.98 115.7, 184.5 0.06 M1.46 210.62 C38.19 168.37, 74.92 126.12, 184.5 0.06 M4.22 219.65 C45.53 172.13, 86.83 124.61, 195.13 0.03 M4.22 219.65 C69.45 144.61, 134.68 69.57, 195.13 0.03 M8.95 226.4 C70 156.17, 131.06 85.93, 205.76 -0.01 M8.95 226.4 C61.98 165.4, 115 104.4, 205.76 -0.01 M15.64 230.9 C70.53 167.76, 125.42 104.62, 216.39 -0.04 M15.64 230.9 C58.43 181.67, 101.23 132.44, 216.39 -0.04 M24.3 233.13 C67.5 183.44, 110.69 133.74, 227.02 -0.08 M24.3 233.13 C82.04 166.71, 139.77 100.29, 227.02 -0.08 M34.28 233.85 C106.53 150.73, 178.78 67.62, 237.65 -0.11 M34.28 233.85 C85.3 175.15, 136.32 116.46, 237.65 -0.11 M44.91 233.81 C110.57 158.27, 176.24 82.73, 248.28 -0.15 M44.91 233.81 C86.47 186, 128.03 138.19, 248.28 -0.15 M55.54 233.78 C119.41 160.3, 183.28 86.82, 258.91 -0.18 M55.54 233.78 C123.99 155.03, 192.45 76.28, 258.91 -0.18 M65.51 234.5 C143.06 145.29, 220.61 56.08, 269.54 -0.22 M65.51 234.5 C108.18 185.41, 150.85 136.33, 269.54 -0.22 M76.14 234.46 C117.68 186.68, 159.22 138.9, 280.17 -0.25 M76.14 234.46 C142.57 158.04, 209.01 81.62, 280.17 -0.25 M86.77 234.43 C163.63 146.02, 240.49 57.6, 290.8 -0.28 M86.77 234.43 C128.31 186.64, 169.85 138.86, 290.8 -0.28 M97.4 234.4 C174.5 145.7, 251.61 57, 300.78 0.44 M97.4 234.4 C167.88 153.32, 238.36 72.24, 300.78 0.44 M108.03 234.36 C160.15 174.4, 212.28 114.44, 311.41 0.4 M108.03 234.36 C172.22 160.51, 236.42 86.67, 311.41 0.4 M118.66 234.33 C199.5 141.33, 280.35 48.33, 322.04 0.37 M118.66 234.33 C180 163.77, 241.33 93.21, 322.04 0.37 M129.29 234.29 C172.82 184.22, 216.34 134.15, 332.67 0.33 M129.29 234.29 C209.95 141.5, 290.62 48.71, 332.67 0.33 M139.92 234.26 C204.43 160.05, 268.94 85.84, 343.3 0.3 M139.92 234.26 C214.41 148.56, 288.9 62.87, 343.3 0.3 M150.55 234.22 C231.21 141.44, 311.86 48.66, 353.93 0.26 M150.55 234.22 C215.9 159.05, 281.25 83.87, 353.93 0.26 M161.18 234.19 C242.15 141.04, 323.12 47.89, 364.56 0.23 M161.18 234.19 C220.08 166.44, 278.98 98.68, 364.56 0.23 M171.81 234.15 C212.94 186.84, 254.08 139.52, 375.19 0.19 M171.81 234.15 C230.37 166.79, 288.93 99.42, 375.19 0.19 M182.44 234.12 C223.51 186.88, 264.57 139.64, 385.82 0.16 M182.44 234.12 C242.23 165.34, 302.03 96.55, 385.82 0.16 M193.07 234.08 C270.53 144.98, 347.98 55.88, 396.45 0.12 M193.07 234.08 C257.78 159.65, 322.48 85.22, 396.45 0.12 M203.7 234.05 C263.01 165.82, 322.32 97.6, 407.08 0.09 M203.7 234.05 C280.04 146.23, 356.38 58.42, 407.08 0.09 M214.33 234.02 C282.21 155.93, 350.09 77.84, 417.71 0.06 M214.33 234.02 C286.94 150.48, 359.56 66.95, 417.71 0.06 M224.96 233.98 C292.47 156.32, 359.98 78.67, 428.34 0.02 M224.96 233.98 C266.24 186.49, 307.52 139.01, 428.34 0.02 M235.59 233.95 C279.11 183.89, 322.62 133.83, 438.97 -0.01 M235.59 233.95 C311.48 146.65, 387.37 59.35, 438.97 -0.01 M246.22 233.91 C325.35 142.88, 404.48 51.85, 449.6 -0.05 M246.22 233.91 C290.88 182.53, 335.55 131.16, 449.6 -0.05 M256.85 233.88 C302.81 181.01, 348.76 128.15, 460.23 -0.08 M256.85 233.88 C309.41 173.42, 361.96 112.96, 460.23 -0.08 M267.48 233.84 C314.44 179.83, 361.39 125.82, 470.86 -0.12 M267.48 233.84 C336.92 153.96, 406.36 74.08, 470.86 -0.12 M278.11 233.81 C344.38 157.58, 410.64 81.35, 481.49 -0.15 M278.11 233.81 C344.87 157.01, 411.64 80.21, 481.49 -0.15 M288.74 233.77 C334.84 180.75, 380.94 127.72, 492.12 -0.19 M288.74 233.77 C341.23 173.39, 393.72 113.01, 492.12 -0.19 M298.72 234.49 C364.25 159.11, 429.79 83.72, 502.75 -0.22 M298.72 234.49 C343.92 182.49, 389.12 130.49, 502.75 -0.22 M309.35 234.46 C359.82 176.4, 410.29 118.34, 513.38 -0.25 M309.35 234.46 C377.21 156.39, 445.08 78.31, 513.38 -0.25 M319.98 234.43 C395.49 147.56, 471 60.69, 523.35 0.47 M319.98 234.43 C360.76 187.51, 401.54 140.59, 523.35 0.47 M330.61 234.39 C404.94 148.88, 479.27 63.38, 533.98 0.43 M330.61 234.39 C391.94 163.84, 453.27 93.29, 533.98 0.43 M341.24 234.36 C399.58 167.24, 457.92 100.12, 544.61 0.4 M341.24 234.36 C392.27 175.65, 443.31 116.93, 544.61 0.4 M351.87 234.32 C424.08 151.26, 496.28 68.19, 555.24 0.36 M351.87 234.32 C428.09 146.63, 504.32 58.95, 555.24 0.36 M362.5 234.29 C409.33 180.41, 456.16 126.54, 565.87 0.33 M362.5 234.29 C440.17 144.93, 517.85 55.57, 565.87 0.33 M373.13 234.25 C452.79 142.62, 532.44 50.98, 576.5 0.29 M373.13 234.25 C441.41 155.7, 509.69 77.15, 576.5 0.29 M383.76 234.22 C427.56 183.83, 471.36 133.44, 587.14 0.26 M383.76 234.22 C450.08 157.93, 516.4 81.63, 587.14 0.26 M394.39 234.18 C466.09 151.7, 537.79 69.22, 597.77 0.22 M394.39 234.18 C443.44 177.76, 492.49 121.33, 597.77 0.22 M405.02 234.15 C447.25 185.57, 489.47 136.99, 608.4 0.19 M405.02 234.15 C453.72 178.13, 502.42 122.11, 608.4 0.19 M415.65 234.12 C479.99 160.09, 544.34 86.07, 619.03 0.16 M415.65 234.12 C481.01 158.92, 546.38 83.73, 619.03 0.16 M426.28 234.08 C471.85 181.66, 517.42 129.23, 629.66 0.12 M426.28 234.08 C467.25 186.94, 508.23 139.8, 629.66 0.12 M436.91 234.05 C490.5 172.4, 544.09 110.75, 640.29 0.09 M436.91 234.05 C493.86 168.53, 550.81 103.01, 640.29 0.09 M447.54 234.01 C494.98 179.44, 542.42 124.86, 650.92 0.05 M447.54 234.01 C511.62 160.29, 575.7 86.58, 650.92 0.05 M458.17 233.98 C534.59 146.07, 611.01 58.15, 661.55 0.02 M458.17 233.98 C538.35 141.74, 618.53 49.5, 661.55 0.02 M468.8 233.94 C520.73 174.2, 572.66 114.46, 672.18 -0.02 M468.8 233.94 C510.82 185.6, 552.84 137.27, 672.18 -0.02 M479.43 233.91 C547.87 155.17, 616.32 76.43, 682.81 -0.05 M479.43 233.91 C523.07 183.7, 566.71 133.5, 682.81 -0.05 M490.06 233.87 C543.35 172.57, 596.65 111.26, 693.44 -0.09 M490.06 233.87 C556.32 157.64, 622.59 81.41, 693.44 -0.09 M500.69 233.84 C547.34 180.17, 594 126.5, 702.75 1.39 M500.69 233.84 C554.25 172.23, 607.8 110.62, 702.75 1.39 M511.32 233.8 C566.48 170.34, 621.65 106.88, 710.76 4.37 M511.32 233.8 C560.37 177.37, 609.43 120.94, 710.76 4.37 M521.95 233.77 C569.75 178.78, 617.55 123.8, 716.8 9.62 M521.95 233.77 C588.8 156.87, 655.65 79.97, 716.8 9.62 M531.92 234.49 C583.85 174.76, 635.77 115.03, 721.52 16.38 M531.92 234.49 C600.87 155.17, 669.82 75.85, 721.52 16.38 M542.55 234.46 C609.18 157.81, 675.8 81.17, 723.62 26.16 M542.55 234.46 C582.31 188.72, 622.06 142.99, 723.62 26.16 M553.18 234.42 C600.98 179.44, 648.78 124.45, 723.76 38.2 M553.18 234.42 C621.25 156.12, 689.31 77.82, 723.76 38.2 M563.81 234.39 C609.98 181.27, 656.16 128.16, 723.89 50.24 M563.81 234.39 C618.04 172, 672.27 109.62, 723.89 50.24 M574.44 234.35 C615.19 187.48, 655.93 140.61, 723.37 63.03 M574.44 234.35 C618.46 183.71, 662.48 133.07, 723.37 63.03 M585.07 234.32 C626.33 186.86, 667.58 139.4, 723.5 75.07 M585.07 234.32 C629.16 183.6, 673.24 132.89, 723.5 75.07 M595.7 234.28 C631.98 192.56, 668.25 150.83, 723.63 87.12 M595.7 234.28 C636.68 187.14, 677.66 140, 723.63 87.12 M606.33 234.25 C652.08 181.63, 697.82 129, 723.77 99.16 M606.33 234.25 C635.68 200.49, 665.02 166.74, 723.77 99.16 M616.96 234.21 C648.1 198.4, 679.23 162.59, 723.9 111.2 M616.96 234.21 C655.85 189.49, 694.73 144.76, 723.9 111.2 M627.59 234.18 C662.05 194.54, 696.51 154.9, 724.03 123.24 M627.59 234.18 C665.93 190.07, 704.28 145.96, 724.03 123.24 M638.22 234.15 C666.5 201.62, 694.77 169.09, 724.17 135.28 M638.22 234.15 C658.79 210.49, 679.36 186.83, 724.17 135.28 M648.85 234.11 C671.08 208.54, 693.32 182.96, 723.64 148.07 M648.85 234.11 C671.26 208.33, 693.67 182.55, 723.64 148.07 M659.48 234.08 C684 205.87, 708.52 177.67, 723.78 160.11 M659.48 234.08 C684.22 205.62, 708.95 177.17, 723.78 160.11 M670.11 234.04 C686.62 215.05, 703.13 196.06, 723.91 172.16 M670.11 234.04 C684.51 217.48, 698.9 200.92, 723.91 172.16 M680.74 234.01 C693.04 219.86, 705.33 205.72, 724.04 184.2 M680.74 234.01 C696.35 216.05, 711.96 198.1, 724.04 184.2 M691.37 233.97 C704.01 219.44, 716.65 204.9, 724.18 196.24 M691.37 233.97 C700.77 223.17, 710.16 212.36, 724.18 196.24 M703.32 232.43 C707.87 227.19, 712.43 221.94, 723.65 209.03 M703.32 232.43 C710.45 224.22, 717.59 216.01, 723.65 209.03" stroke="#a5d8ff" stroke-width="1" fill="none"></path><path d="M32 0 C170.05 0, 308.09 0, 691.88 0 M32 0 C262.89 0, 493.78 0, 691.88 0 M691.88 0 C713.22 0, 723.88 10.67, 723.88 32 M691.88 0 C713.22 0, 723.88 10.67, 723.88 32 M723.88 32 C723.88 77.52, 723.88 123.03, 723.88 201.5 M723.88 32 C723.88 80.39, 723.88 128.77, 723.88 201.5 M723.88 201.5 C723.88 222.84, 713.22 233.5, 691.88 233.5 M723.88 201.5 C723.88 222.84, 713.22 233.5, 691.88 233.5 M691.88 233.5 C480.48 233.5, 269.07 233.5, 32 233.5 M691.88 233.5 C474.16 233.5, 256.44 233.5, 32 233.5 M32 233.5 C10.67 233.5, 0 222.84, 0 201.5 M32 233.5 C10.67 233.5, 0 222.84, 0 201.5 M0 201.5 C0 146.24, 0 90.98, 0 32 M0 201.5 C0 136.29, 0 71.08, 0 32 M0 32 C0 10.67, 10.67 0, 32 0 M0 32 C0 10.67, 10.67 0, 32 0" stroke="#1e1e1e" stroke-width="2" fill="none"></path></g><g stroke-linecap="round" transform="translate(12.1953125 287.61328125) rotate(0 359.869140625 117.529296875)"><path d="M7.86 8.16 C7.86 8.16, 7.86 8.16, 7.86 8.16 M7.86 8.16 C7.86 8.16, 7.86 8.16, 7.86 8.16 M0.78 28.5 C6.81 21.56, 12.84 14.62, 25.05 0.58 M0.78 28.5 C7.72 20.51, 14.67 12.53, 25.05 0.58 M0.26 41.3 C12.66 27.03, 25.07 12.76, 36.34 -0.21 M0.26 41.3 C12.78 26.88, 25.31 12.47, 36.34 -0.21 M0.39 53.34 C13.4 38.36, 26.42 23.39, 46.97 -0.25 M0.39 53.34 C17.1 34.12, 33.81 14.9, 46.97 -0.25 M0.52 65.38 C22.83 39.71, 45.15 14.04, 57.6 -0.28 M0.52 65.38 C17.7 45.62, 34.88 25.86, 57.6 -0.28 M0.65 77.42 C26.68 47.49, 52.7 17.55, 67.57 0.44 M0.65 77.42 C17.57 57.96, 34.49 38.5, 67.57 0.44 M0.13 90.22 C18.64 68.93, 37.14 47.64, 78.2 0.41 M0.13 90.22 C20.69 66.57, 41.25 42.92, 78.2 0.41 M0.26 102.26 C29.54 68.58, 58.82 34.9, 88.83 0.37 M0.26 102.26 C28.93 69.28, 57.59 36.31, 88.83 0.37 M0.4 114.3 C37.46 71.67, 74.52 29.04, 99.46 0.34 M0.4 114.3 C24.06 87.08, 47.71 59.87, 99.46 0.34 M0.53 126.34 C39.95 80.99, 79.38 35.64, 110.09 0.3 M0.53 126.34 C44.34 75.95, 88.14 25.55, 110.09 0.3 M0.66 138.38 C30.16 104.45, 59.66 70.51, 120.72 0.27 M0.66 138.38 C31.32 103.12, 61.97 67.85, 120.72 0.27 M0.8 150.42 C44.34 100.33, 87.88 50.24, 131.35 0.23 M0.8 150.42 C37.82 107.83, 74.84 65.25, 131.35 0.23 M0.27 163.22 C49.45 106.65, 98.62 50.08, 141.98 0.2 M0.27 163.22 C37.72 120.14, 75.16 77.07, 141.98 0.2 M0.41 175.26 C32.38 138.48, 64.35 101.7, 152.61 0.16 M0.41 175.26 C38.51 131.42, 76.62 87.59, 152.61 0.16 M0.54 187.3 C53.37 126.52, 106.2 65.75, 163.24 0.13 M0.54 187.3 C39.63 142.33, 78.72 97.36, 163.24 0.13 M0.67 199.34 C61.19 129.72, 121.71 60.1, 173.87 0.09 M0.67 199.34 C61.16 129.75, 121.65 60.17, 173.87 0.09 M0.81 211.38 C51.71 152.83, 102.61 94.27, 184.5 0.06 M0.81 211.38 C52.55 151.86, 104.28 92.34, 184.5 0.06 M3.56 220.4 C44.4 173.42, 85.24 126.44, 195.13 0.03 M3.56 220.4 C61.54 153.71, 119.52 87.01, 195.13 0.03 M8.29 227.16 C58.44 169.47, 108.59 111.78, 205.76 -0.01 M8.29 227.16 C69.52 156.72, 130.75 86.28, 205.76 -0.01 M14.98 231.65 C68.24 170.38, 121.5 109.11, 216.39 -0.04 M14.98 231.65 C56.56 183.82, 98.14 136, 216.39 -0.04 M22.99 234.64 C95.77 150.91, 168.55 67.19, 227.02 -0.08 M22.99 234.64 C98.61 147.65, 174.23 60.66, 227.02 -0.08 M32.96 235.36 C87.79 172.28, 142.62 109.21, 237.65 -0.11 M32.96 235.36 C80.03 181.22, 127.09 127.08, 237.65 -0.11 M43.59 235.32 C92.37 179.21, 141.14 123.1, 248.28 -0.15 M43.59 235.32 C111.51 157.19, 179.43 79.06, 248.28 -0.15 M54.22 235.29 C133.99 143.53, 213.75 51.77, 258.91 -0.18 M54.22 235.29 C118.88 160.91, 183.53 86.54, 258.91 -0.18 M64.2 236.01 C105.93 188, 147.66 139.99, 269.54 -0.22 M64.2 236.01 C143.38 144.92, 222.57 53.82, 269.54 -0.22 M74.83 235.97 C135.96 165.65, 197.09 95.32, 280.17 -0.25 M74.83 235.97 C132.42 169.73, 190 103.48, 280.17 -0.25 M85.46 235.94 C148.63 163.27, 211.79 90.61, 290.8 -0.28 M85.46 235.94 C156.8 153.87, 228.15 71.79, 290.8 -0.28 M96.09 235.9 C149.57 174.38, 203.06 112.85, 300.78 0.44 M96.09 235.9 C160.22 162.14, 224.34 88.37, 300.78 0.44 M106.72 235.87 C159.75 174.87, 212.78 113.86, 311.41 0.4 M106.72 235.87 C179.61 152.01, 252.51 68.16, 311.41 0.4 M117.35 235.84 C168.8 176.65, 220.25 117.46, 322.04 0.37 M117.35 235.84 C174.14 170.5, 230.93 105.17, 322.04 0.37 M127.98 235.8 C192.83 161.2, 257.67 86.6, 332.67 0.33 M127.98 235.8 C204.52 147.75, 281.07 59.69, 332.67 0.33 M138.61 235.77 C187.82 179.16, 237.02 122.55, 343.3 0.3 M138.61 235.77 C181.48 186.45, 224.35 137.13, 343.3 0.3 M149.24 235.73 C229.39 143.52, 309.55 51.32, 353.93 0.26 M149.24 235.73 C207.91 168.24, 266.59 100.74, 353.93 0.26 M159.87 235.7 C221.78 164.48, 283.69 93.26, 364.56 0.23 M159.87 235.7 C204.73 184.09, 249.6 132.48, 364.56 0.23 M170.5 235.66 C241.27 154.25, 312.04 72.83, 375.19 0.19 M170.5 235.66 C212.12 187.78, 253.75 139.9, 375.19 0.19 M181.13 235.63 C245.22 161.9, 309.32 88.16, 385.82 0.16 M181.13 235.63 C260.97 143.78, 340.81 51.93, 385.82 0.16 M191.76 235.59 C251.77 166.56, 311.78 97.52, 396.45 0.12 M191.76 235.59 C264.77 151.61, 337.77 67.62, 396.45 0.12 M202.39 235.56 C253.48 176.78, 304.58 118.01, 407.08 0.09 M202.39 235.56 C259.47 169.89, 316.56 104.22, 407.08 0.09 M213.02 235.53 C274.29 165.04, 335.56 94.55, 417.71 0.06 M213.02 235.53 C254.49 187.81, 295.97 140.1, 417.71 0.06 M223.65 235.49 C283.14 167.06, 342.63 98.62, 428.34 0.02 M223.65 235.49 C267.84 184.65, 312.03 133.82, 428.34 0.02 M234.28 235.46 C291.84 169.23, 349.41 103.01, 438.97 -0.01 M234.28 235.46 C299.92 159.95, 365.56 84.43, 438.97 -0.01 M244.91 235.42 C309.69 160.9, 374.47 86.38, 449.6 -0.05 M244.91 235.42 C286.83 187.2, 328.75 138.98, 449.6 -0.05 M255.54 235.39 C318.47 162.99, 381.4 90.6, 460.23 -0.08 M255.54 235.39 C319.76 161.51, 383.98 87.63, 460.23 -0.08 M266.17 235.35 C308.95 186.13, 351.74 136.92, 470.86 -0.12 M266.17 235.35 C311.75 182.92, 357.33 130.48, 470.86 -0.12 M276.8 235.32 C337.82 165.12, 398.84 94.93, 481.49 -0.15 M276.8 235.32 C339.88 162.75, 402.96 90.18, 481.49 -0.15 M286.77 236.04 C358.99 152.96, 431.21 69.89, 492.12 -0.19 M286.77 236.04 C352.52 160.41, 418.26 84.78, 492.12 -0.19 M297.4 236 C364.13 159.24, 430.86 82.48, 502.75 -0.22 M297.4 236 C349.51 176.06, 401.61 116.12, 502.75 -0.22 M308.03 235.97 C375.68 158.15, 443.33 80.32, 513.38 -0.25 M308.03 235.97 C373.99 160.1, 439.94 84.23, 513.38 -0.25 M318.66 235.94 C382.37 162.66, 446.07 89.38, 523.35 0.47 M318.66 235.94 C364.44 183.27, 410.22 130.61, 523.35 0.47 M329.29 235.9 C376.14 182.01, 422.98 128.12, 533.98 0.43 M329.29 235.9 C395.45 159.8, 461.61 83.69, 533.98 0.43 M339.92 235.87 C407.83 157.75, 475.73 79.64, 544.61 0.4 M339.92 235.87 C404.32 161.79, 468.71 87.72, 544.61 0.4 M350.55 235.83 C419.74 156.24, 488.94 76.64, 555.24 0.36 M350.55 235.83 C431.84 142.32, 513.12 48.82, 555.24 0.36 M361.18 235.8 C425.23 162.12, 489.28 88.44, 565.87 0.33 M361.18 235.8 C432.13 154.18, 503.08 72.57, 565.87 0.33 M371.81 235.76 C422.3 177.69, 472.78 119.62, 576.5 0.29 M371.81 235.76 C430.6 168.14, 489.39 100.51, 576.5 0.29 M382.44 235.73 C450.54 157.39, 518.64 79.05, 587.14 0.26 M382.44 235.73 C456.8 150.19, 531.15 64.66, 587.14 0.26 M393.07 235.69 C463.88 154.24, 534.68 72.8, 597.77 0.22 M393.07 235.69 C456.78 162.41, 520.48 89.13, 597.77 0.22 M403.7 235.66 C469.33 160.17, 534.95 84.68, 608.4 0.19 M403.7 235.66 C471.56 157.6, 539.42 79.54, 608.4 0.19 M414.33 235.62 C481.6 158.24, 548.87 80.86, 619.03 0.16 M414.33 235.62 C467.63 174.32, 520.92 113.01, 619.03 0.16 M424.96 235.59 C498.18 151.37, 571.39 67.14, 629.66 0.12 M424.96 235.59 C474.45 178.66, 523.94 121.73, 629.66 0.12 M435.6 235.56 C494.79 167.46, 553.99 99.36, 640.29 0.09 M435.6 235.56 C496.85 165.09, 558.1 94.62, 640.29 0.09 M446.23 235.52 C523.32 146.84, 600.41 58.15, 650.92 0.05 M446.23 235.52 C488.77 186.58, 531.32 137.63, 650.92 0.05 M456.86 235.49 C502.61 182.86, 548.36 130.23, 661.55 0.02 M456.86 235.49 C511.29 172.86, 565.73 110.24, 661.55 0.02 M467.49 235.45 C521.04 173.85, 574.59 112.24, 672.18 -0.02 M467.49 235.45 C542.63 149.01, 617.77 62.57, 672.18 -0.02 M478.12 235.42 C545.47 157.93, 612.83 80.45, 682.81 -0.05 M478.12 235.42 C554.25 147.83, 630.39 60.25, 682.81 -0.05 M488.75 235.38 C559.84 153.6, 630.93 71.82, 692.78 0.67 M488.75 235.38 C566.31 146.15, 643.88 56.92, 692.78 0.67 M499.38 235.35 C561.18 164.25, 622.99 93.14, 702.1 2.14 M499.38 235.35 C560.64 164.87, 621.9 94.4, 702.1 2.14 M510.01 235.31 C574.7 160.89, 639.39 86.47, 709.45 5.88 M510.01 235.31 C576.07 159.32, 642.13 83.32, 709.45 5.88 M519.98 236.03 C569.01 179.64, 618.03 123.24, 714.83 11.89 M519.98 236.03 C581.37 165.41, 642.76 94.79, 714.83 11.89 M530.61 236 C592.43 164.88, 654.26 93.76, 718.9 19.4 M530.61 236 C573.52 186.63, 616.44 137.27, 718.9 19.4 M541.24 235.97 C607.52 159.72, 673.79 83.48, 719.69 30.68 M541.24 235.97 C602.33 165.69, 663.43 95.4, 719.69 30.68 M551.87 235.93 C594 187.47, 636.12 139.01, 719.82 42.73 M551.87 235.93 C602.46 177.74, 653.05 119.54, 719.82 42.73 M562.5 235.9 C604.52 187.56, 646.54 139.22, 719.3 55.52 M562.5 235.9 C607.87 183.71, 653.23 131.52, 719.3 55.52 M573.13 235.86 C607.33 196.52, 641.54 157.17, 719.43 67.56 M573.13 235.86 C617.84 184.43, 662.55 133, 719.43 67.56 M583.76 235.83 C617.26 197.29, 650.76 158.75, 719.56 79.6 M583.76 235.83 C629.21 183.54, 674.66 131.26, 719.56 79.6 M594.39 235.79 C640.86 182.34, 687.33 128.88, 719.7 91.64 M594.39 235.79 C621.83 204.23, 649.27 172.67, 719.7 91.64 M605.02 235.76 C629.63 207.45, 654.23 179.14, 719.83 103.68 M605.02 235.76 C631.48 205.32, 657.94 174.88, 719.83 103.68 M615.65 235.72 C637.26 210.87, 658.86 186.01, 719.96 115.73 M615.65 235.72 C651.4 194.6, 687.14 153.48, 719.96 115.73 M626.28 235.69 C661.87 194.75, 697.46 153.81, 720.1 127.77 M626.28 235.69 C645.26 213.85, 664.25 192.01, 720.1 127.77 M636.91 235.65 C656.7 212.9, 676.48 190.14, 719.57 140.56 M636.91 235.65 C653.57 216.49, 670.23 197.33, 719.57 140.56 M647.54 235.62 C672.93 206.42, 698.31 177.22, 719.71 152.6 M647.54 235.62 C665.53 214.93, 683.52 194.23, 719.71 152.6 M658.17 235.59 C671.48 220.28, 684.78 204.98, 719.84 164.64 M658.17 235.59 C673.2 218.3, 688.23 201.01, 719.84 164.64 M668.8 235.55 C681.24 221.24, 693.68 206.93, 719.97 176.68 M668.8 235.55 C681.27 221.21, 693.74 206.86, 719.97 176.68 M679.43 235.52 C689.04 224.47, 698.64 213.41, 720.11 188.72 M679.43 235.52 C693.3 219.57, 707.16 203.62, 720.11 188.72 M690.72 234.73 C701.53 222.28, 712.35 209.84, 720.24 200.77 M690.72 234.73 C697.55 226.87, 704.38 219.01, 720.24 200.77 M702 233.94 C706.14 229.18, 710.27 224.43, 718.4 215.07 M702 233.94 C706.73 228.5, 711.45 223.07, 718.4 215.07" stroke="#ffec99" stroke-width="1" fill="none"></path><path d="M32 0 C249.41 0, 466.83 0, 687.74 0 M32 0 C199.37 0, 366.74 0, 687.74 0 M687.74 0 C709.07 0, 719.74 10.67, 719.74 32 M687.74 0 C709.07 0, 719.74 10.67, 719.74 32 M719.74 32 C719.74 94.99, 719.74 157.98, 719.74 203.06 M719.74 32 C719.74 72.71, 719.74 113.41, 719.74 203.06 M719.74 203.06 C719.74 224.39, 709.07 235.06, 687.74 235.06 M719.74 203.06 C719.74 224.39, 709.07 235.06, 687.74 235.06 M687.74 235.06 C509.16 235.06, 330.59 235.06, 32 235.06 M687.74 235.06 C540.72 235.06, 393.7 235.06, 32 235.06 M32 235.06 C10.67 235.06, 0 224.39, 0 203.06 M32 235.06 C10.67 235.06, 0 224.39, 0 203.06 M0 203.06 C0 141.35, 0 79.65, 0 32 M0 203.06 C0 165.59, 0 128.13, 0 32 M0 32 C0 10.67, 10.67 0, 32 0 M0 32 C0 10.67, 10.67 0, 32 0" stroke="#1e1e1e" stroke-width="2" fill="none"></path></g><g transform="translate(35.21484375 64.234375) rotate(0 49.859954833984375 12.5)"><text x="0" y="17.52" font-family="Virgil, Segoe UI Emoji" font-size="20px" fill="#1e1e1e" text-anchor="start" style="white-space: pre;" direction="ltr" dominant-baseline="alphabetic">Userspace</text></g><g transform="translate(31.53125 492.70703125) rotate(0 28.66997528076172 12.5)"><text x="0" y="17.52" font-family="Virgil, Segoe UI Emoji" font-size="20px" fill="#1e1e1e" text-anchor="start" style="white-space: pre;" direction="ltr" dominant-baseline="alphabetic">Kernel</text></g><g stroke-linecap="round" transform="translate(232.046875 110.44140625) rotate(0 128.734375 48.8984375)"><path d="M24.45 0 C70.6 -2.41, 114 -7.44, 233.02 0 C243.85 -0.44, 255.17 12.39, 257.47 24.45 C254.33 38.1, 251.97 57.31, 257.47 73.35 C253.42 90, 249.94 94.78, 233.02 97.8 C152.36 99.8, 80.49 106.03, 24.45 97.8 C3.24 101.77, 1.75 86.28, 0 73.35 C-3.54 63.39, -4.62 45.25, 0 24.45 C0.06 9.01, 13.64 -4.6, 24.45 0" stroke="none" stroke-width="0" fill="#b2f2bb"></path><path d="M24.45 0 C73.79 0.59, 117.74 -1.84, 233.02 0 M24.45 0 C83.91 -0.64, 142.12 1.04, 233.02 0 M233.02 0 C247.92 2.17, 258.51 9.42, 257.47 24.45 M233.02 0 C248.21 -1.68, 257.08 12.42, 257.47 24.45 M257.47 24.45 C255.21 33.76, 257.88 42.18, 257.47 73.35 M257.47 24.45 C257.45 36.9, 255.03 53.79, 257.47 73.35 M257.47 73.35 C257.94 87.11, 250.18 98.04, 233.02 97.8 M257.47 73.35 C257.85 91.21, 247.89 97.71, 233.02 97.8 M233.02 97.8 C182.8 93.84, 135.72 98.36, 24.45 97.8 M233.02 97.8 C176.41 97.18, 121.72 97.45, 24.45 97.8 M24.45 97.8 C11.18 95.32, 0.93 92.89, 0 73.35 M24.45 97.8 C11.08 98.26, -2.97 92.69, 0 73.35 M0 73.35 C2.73 52.81, -2.99 38.14, 0 24.45 M0 73.35 C-0.91 60.79, -0.08 51.69, 0 24.45 M0 24.45 C2.26 8.87, 9.6 -2.91, 24.45 0 M0 24.45 C4.26 12.03, 4.81 -3.63, 24.45 0" stroke="#1e1e1e" stroke-width="2" fill="none"></path></g><g transform="translate(333.7312774658203 146.83984375) rotate(0 27.049972534179688 12.5)"><text x="27.049972534179688" y="17.52" font-family="Virgil, Segoe UI Emoji" font-size="20px" fill="#1e1e1e" text-anchor="middle" style="white-space: pre;" direction="ltr" dominant-baseline="alphabetic">Client</text></g><g stroke-linecap="round"><g transform="translate(792.3046875 50.14453125) rotate(0 0.59375 244.072265625)"><path d="M0 0 C0.2 81.36, 0.99 406.79, 1.19 488.14 M0 0 C0.2 81.36, 0.99 406.79, 1.19 488.14" stroke="#1e1e1e" stroke-width="2" fill="none"></path></g><g transform="translate(792.3046875 50.14453125) rotate(0 0.59375 244.072265625)"><path d="M1.19 488.14 L-5.18 474.57 L7.49 474.53 L1.19 488.14" stroke="none" stroke-width="0" fill="#1e1e1e" fill-rule="evenodd"></path><path d="M1.19 488.14 C-0.4 484.76, -1.99 481.37, -5.18 474.57 M1.19 488.14 C-0.87 483.77, -2.92 479.39, -5.18 474.57 M-5.18 474.57 C-1.87 474.56, 1.45 474.55, 7.49 474.53 M-5.18 474.57 C-1.2 474.56, 2.78 474.55, 7.49 474.53 M7.49 474.53 C5.06 479.78, 2.63 485.03, 1.19 488.14 M7.49 474.53 C5.82 478.15, 4.14 481.77, 1.19 488.14 M1.19 488.14 C1.19 488.14, 1.19 488.14, 1.19 488.14 M1.19 488.14 C1.19 488.14, 1.19 488.14, 1.19 488.14" stroke="#1e1e1e" stroke-width="2" fill="none"></path></g></g><mask></mask><g transform="translate(768.6640625 10) rotate(0 22.339981079101562 12.5)"><text x="0" y="17.52" font-family="Virgil, Segoe UI Emoji" font-size="20px" fill="#1e1e1e" text-anchor="start" style="white-space: pre;" direction="ltr" dominant-baseline="alphabetic">User</text></g><g transform="translate(748.6171875 545.01953125) rotate(0 44.69996643066406 12.5)"><text x="0" y="17.52" font-family="Virgil, Segoe UI Emoji" font-size="20px" fill="#1e1e1e" text-anchor="start" style="white-space: pre;" direction="ltr" dominant-baseline="alphabetic">Hardware</text></g><g stroke-linecap="round" transform="translate(234.65234375 353.90625) rotate(0 128.734375 48.8984375)"><path d="M24.45 0 C89.32 3.92, 151.45 1.86, 233.02 0 C252.14 -4.57, 261.25 7.76, 257.47 24.45 C262.2 38.93, 260.19 66.63, 257.47 73.35 C256.81 93.1, 243.88 95.22, 233.02 97.8 C167.82 103.83, 95.89 98.64, 24.45 97.8 C13.3 97.44, -3.29 93.97, 0 73.35 C2.07 58.16, -4.64 49.84, 0 24.45 C-0.26 9.27, 3.01 2.39, 24.45 0" stroke="none" stroke-width="0" fill="#ffc9c9"></path><path d="M24.45 0 C107.09 -3.44, 187.37 0.87, 233.02 0 M24.45 0 C104.97 -2.68, 190.49 -1.26, 233.02 0 M233.02 0 C246.98 2.07, 255.33 5.9, 257.47 24.45 M233.02 0 C249.63 0.04, 258.76 11.17, 257.47 24.45 M257.47 24.45 C260.57 44.98, 259.84 63.93, 257.47 73.35 M257.47 24.45 C257.88 42.84, 257.35 58.82, 257.47 73.35 M257.47 73.35 C258.02 86.86, 249.16 94.47, 233.02 97.8 M257.47 73.35 C260.55 90.17, 247.58 101.26, 233.02 97.8 M233.02 97.8 C161.82 101.21, 90.2 97.74, 24.45 97.8 M233.02 97.8 C173.95 96.96, 116.61 94.88, 24.45 97.8 M24.45 97.8 C9.77 99.69, 1.97 87.07, 0 73.35 M24.45 97.8 C12.51 99.78, -4.57 91.59, 0 73.35 M0 73.35 C-3.68 62.84, -4.28 44.42, 0 24.45 M0 73.35 C0.55 62.6, -0.43 51.46, 0 24.45 M0 24.45 C-3.07 9.36, 5.17 2.84, 24.45 0 M0 24.45 C3.66 8.54, 6.12 0.74, 24.45 0" stroke="#1e1e1e" stroke-width="2" fill="none"></path></g><g transform="translate(304.2067642211914 390.3046875) rotate(0 59.179954528808594 12.5)"><text x="59.179954528808594" y="17.52" font-family="Virgil, Segoe UI Emoji" font-size="20px" fill="#1e1e1e" text-anchor="middle" style="white-space: pre;" direction="ltr" dominant-baseline="alphabetic">UDP Socket</text></g><g stroke-linecap="round"><g transform="translate(363.67691668194914 216.40234375) rotate(0 1.841072670991764 65.08984375)"><path d="M0 0 C0.61 21.7, 3.07 108.48, 3.68 130.18 M0 0 C0.61 21.7, 3.07 108.48, 3.68 130.18" stroke="#1e1e1e" stroke-width="2" fill="none"></path></g><g transform="translate(363.67691668194914 216.40234375) rotate(0 1.841072670991764 65.08984375)"><path d="M3.68 130.18 L-3.04 116.77 L9.63 116.41 L3.68 130.18" stroke="none" stroke-width="0" fill="#1e1e1e" fill-rule="evenodd"></path><path d="M3.68 130.18 C0.99 124.82, -1.69 119.46, -3.04 116.77 M3.68 130.18 C2.29 127.41, 0.91 124.64, -3.04 116.77 M-3.04 116.77 C0.58 116.67, 4.2 116.56, 9.63 116.41 M-3.04 116.77 C-0.07 116.69, 2.89 116.6, 9.63 116.41 M9.63 116.41 C8.28 119.54, 6.93 122.67, 3.68 130.18 M9.63 116.41 C7.5 121.34, 5.37 126.27, 3.68 130.18 M3.68 130.18 C3.68 130.18, 3.68 130.18, 3.68 130.18 M3.68 130.18 C3.68 130.18, 3.68 130.18, 3.68 130.18" stroke="#1e1e1e" stroke-width="2" fill="none"></path></g></g><mask></mask></svg>